<?xml version="1.0" encoding="UTF-8"?>
<svg id="Calque_1" data-name="Calque 1" xmlns="http://www.w3.org/2000/svg" viewBox="0 0 694.41 203.85">
  <g id="Calque_2" data-name="Calque 2">
    <path d="M86.83,196.42c.16-1.84,1.63-18.68,1.86-23.87.04-.84.66-1.53,1.49-1.66,5.62-.85,26.23-5.05,43.29-22.45,16.18-16.5,21.16-34.97,22.2-43.94,5.16-44.75-18.95-87.34-28.85-101.74-1.73-2.52-4.99-3.46-7.78-2.22-15.79,7-59.17,31.45-72.53,63.31-1.82,4.34-.75,9.19-.23,10.99.13.46.46.85.89,1.06,31.39,15.79,34.25,38.22,35.18,34.5,2.55-10.21,20.64-66.22,26.89-68.51s7.16,3.75,7.1,4c-2.58,10.58-23.51,61.41-22.97,64.13.9,4.49,25.73-22.11,34.32-16.65,1.92,1.22,4.48,4.78,2.71,5.81-10.12,5.87-27.49,12.2-33.42,18.28-20.12,20.63-20.45,74.73-20.16,83.15.02.69.32,1.34.82,1.82h0s1.3,1.54,2.69,1.39c5.37-.55,6.24-6.34,6.46-7.18.02-.08.03-.16.04-.25Z" style="fill: #49fe9d;"/>
    <path d="M1.69,71.15c-3.3,35.59-9.38,94.61,66.57,100.01,1.78.13,2.94-1.86,1.96-3.35-5.97-9.04-21.24-32.17-22.83-34.34-.06-.08-.12-.15-.19-.22-1.5-1.53-21.61-22.1-22.23-25.83s4.8-5.53,5.77-4.58c7.45,7.26,12.32,9.26,41.91,48.52,3.5,3.65,6.38-26.27,6.4-25.77,5.27-25.21-56.95-62.09-75.88-56.3-.82.25-1.39.99-1.47,1.85Z" style="fill: #49fe9d;"/>
    <g>
      <path d="M240.16,87.06c4.35,0,8.5,1.04,12.44,3.13,3.94,2.09,7.16,5.03,9.66,8.83,2.87-3.71,6.55-6.62,11.05-8.76,4.49-2.13,8.97-3.2,13.41-3.2,7.04,0,13.25,2.6,18.63,7.78,5.37,5.19,8.06,12.05,8.06,20.57v50.6h-20.43v-42.12c0-12.14-4.45-18.21-13.34-18.21-6.49,0-10.75,2.78-12.79,8.34v51.99h-20.29v-42.12c0-12.14-4.45-18.21-13.34-18.21-6.49,0-10.8,2.92-12.93,8.76v51.57h-20.29v-77.28h20.29v8.34c4.91-6.67,11.54-10.01,19.88-10.01Z" style="fill: #49fe9d;"/>
      <path d="M357.06,66.21c10.29,0,19,2.57,26.13,7.71,7.13,5.14,10.7,12.58,10.7,22.31,0,2.97-.58,5.7-1.74,8.2-1.16,2.5-2.57,4.45-4.24,5.84-1.67,1.39-3.34,2.57-5,3.54-1.67.97-3.11,1.6-4.31,1.88l-1.67.56c.56,0,1.25.07,2.08.21.83.14,2.36.63,4.59,1.46,2.22.83,4.19,1.95,5.91,3.34,1.71,1.39,3.27,3.5,4.66,6.32,1.39,2.83,2.08,6.09,2.08,9.8,0,9.08-3.66,16.43-10.98,22.03-7.32,5.61-16.59,8.41-27.8,8.41-4.73,0-9.24-.51-13.55-1.53-4.31-1.02-7.88-2.27-10.7-3.75-2.83-1.48-5.31-2.96-7.44-4.45-2.13-1.48-3.71-2.73-4.73-3.75l-1.39-1.53,10.15-16.4c.28.28.67.67,1.18,1.18.51.51,1.64,1.44,3.41,2.78,1.76,1.34,3.64,2.5,5.63,3.48,1.99.97,4.56,1.88,7.71,2.71,3.15.83,6.39,1.25,9.73,1.25,10.93,0,16.4-4.03,16.4-12.09,0-7.23-5.61-10.84-16.82-10.84h-14.59v-16.68h14.59c5.19,0,8.9-.74,11.12-2.22,2.22-1.48,3.34-4.26,3.34-8.34s-1.16-7.3-3.48-9.1c-2.32-1.81-5.98-2.71-10.98-2.71-3.89,0-7.76.95-11.61,2.85-3.85,1.9-6.74,3.78-8.69,5.63l-2.92,2.78-11.81-15.85,1.6-1.6c.69-.69,2.18-1.9,4.45-3.61,2.27-1.71,4.68-3.24,7.23-4.59,2.55-1.34,5.79-2.55,9.73-3.61,3.94-1.06,7.94-1.6,12.02-1.6Z" style="fill: #49fe9d;"/>
      <path d="M449.77,87.06c7.04,0,13.27,2.6,18.7,7.78,5.42,5.19,8.13,12.05,8.13,20.57v50.6h-20.29v-42.12c0-12.14-4.45-18.21-13.34-18.21-4.36,0-8.13.95-11.33,2.85-3.2,1.9-5.49,4.52-6.88,7.85v49.62h-20.29v-77.28h20.29v10.56c2.96-3.8,6.74-6.79,11.33-8.97,4.59-2.18,9.15-3.27,13.69-3.27Z" style="fill: #49fe9d;"/>
      <path d="M494.94,67.74h19.6v20.99h20.02v18.63h-20.02v27.24c0,2.13.09,3.99.28,5.56.18,1.58.56,3.15,1.11,4.73.56,1.58,1.44,2.78,2.64,3.61,1.2.83,2.73,1.25,4.59,1.25,2.13,0,4.17-.35,6.12-1.04,1.95-.69,3.34-1.41,4.17-2.15l1.39-.97,6.39,14.73c-.46.56-1.18,1.25-2.15,2.09-.97.83-3.15,1.95-6.53,3.34-3.38,1.39-7.07,2.08-11.05,2.08-4.73,0-8.8-.79-12.23-2.36-3.43-1.57-6.05-3.54-7.85-5.91-1.81-2.36-3.22-5.47-4.24-9.31-1.02-3.84-1.65-7.41-1.88-10.7-.23-3.29-.35-7.34-.35-12.16v-20.02h-12.65v-18.63h12.65v-20.99Z" style="fill: #49fe9d;"/>
      <path d="M546.93,61.06h20.29v38.22c2.96-3.8,6.76-6.79,11.4-8.97,4.63-2.18,9.22-3.27,13.76-3.27,7.04,0,13.25,2.6,18.63,7.78,5.37,5.19,8.06,12.05,8.06,20.57v50.6h-20.29v-42.12c0-12.14-4.45-18.21-13.34-18.21-4.36,0-8.13.95-11.33,2.85-3.2,1.9-5.49,4.52-6.88,7.85v49.62h-20.29V61.06Z" style="fill: #49fe9d;"/>
      <path d="M667.72,87.06c7.51,0,13.83,2.48,18.97,7.44,5.14,4.96,7.71,12.72,7.71,23.28v48.23h-20.29v-9.87c-5.65,7.78-13.81,11.68-24.46,11.68-6.3,0-11.93-1.9-16.89-5.7-4.96-3.8-7.44-9.08-7.44-15.85,0-8.99,3.1-15.82,9.31-20.5,6.21-4.68,13.71-7.02,22.52-7.02h17.1v-.83c0-8.15-3.52-12.23-10.56-12.23-3.61,0-7.21.51-10.77,1.53-3.57,1.02-6.23,2.04-7.99,3.06l-2.64,1.53-7.65-14.87c.37-.28.88-.63,1.53-1.04.65-.42,2.06-1.2,4.24-2.36,2.18-1.16,4.47-2.18,6.88-3.06,2.41-.88,5.47-1.67,9.17-2.36,3.71-.69,7.46-1.04,11.26-1.04ZM657.99,132.23c-8.16,0-12.23,3.61-12.23,10.84,0,2.97,1,5.31,2.99,7.02,1.99,1.72,4.84,2.57,8.55,2.57,4.82,0,8.83-2.11,12.02-6.32,3.2-4.22,4.8-8.22,4.8-12.02v-2.08h-16.12Z" style="fill: #49fe9d;"/>
    </g>
  </g>
</svg>