<?xml version="1.0" encoding="UTF-8"?>
<svg id="Calque_1" data-name="Calque 1" xmlns="http://www.w3.org/2000/svg" viewBox="0 0 156.39 203.85">
  <g id="Calque_2" data-name="Calque 2">
    <path d="M86.83,196.42c.16-1.84,1.63-18.68,1.86-23.87.04-.84.66-1.53,1.49-1.66,5.62-.85,26.23-5.05,43.29-22.45,16.18-16.5,21.16-34.97,22.2-43.94,5.16-44.75-18.95-87.34-28.85-101.74-1.73-2.52-4.99-3.46-7.78-2.22-15.79,7-59.17,31.45-72.53,63.31-1.82,4.34-.75,9.19-.23,10.99.13.46.46.85.89,1.06,31.39,15.79,34.25,38.22,35.18,34.5,2.55-10.21,20.64-66.22,26.89-68.51s7.16,3.75,7.1,4c-2.58,10.58-23.51,61.41-22.97,64.13.9,4.49,25.73-22.11,34.32-16.65,1.92,1.22,4.48,4.78,2.71,5.81-10.12,5.87-27.49,12.2-33.42,18.28-20.12,20.63-20.45,74.73-20.16,83.15.02.69.32,1.34.82,1.82h0s1.3,1.54,2.69,1.39c5.37-.55,6.24-6.34,6.46-7.18.02-.08.03-.16.04-.25Z" style="fill: #49fe9d;"/>
    <path d="M1.69,71.15c-3.3,35.59-9.38,94.61,66.57,100.01,1.78.13,2.94-1.86,1.96-3.35-5.97-9.04-21.24-32.17-22.83-34.34-.06-.08-.12-.15-.19-.22-1.5-1.53-21.61-22.1-22.23-25.83s4.8-5.53,5.77-4.58c7.45,7.26,12.32,9.26,41.91,48.52,3.5,3.65,6.38-26.27,6.4-25.77,5.27-25.21-56.95-62.09-75.88-56.3-.82.25-1.39.99-1.47,1.85Z" style="fill: #49fe9d;"/>
  </g>
</svg>